<mxfile host="app.diagrams.net" modified="2024-05-13T04:43:20.678Z" agent="Mozilla/5.0 (Windows NT 10.0; Win64; x64) AppleWebKit/537.36 (KHTML, like Gecko) Chrome/124.0.0.0 Safari/537.36 Edg/124.0.0.0" etag="9P85F4W_HanPEzcEAtfq" version="24.4.0" type="github">
  <diagram name="Page-1" id="2YBvvXClWsGukQMizWep">
    <mxGraphModel dx="1339" dy="543" grid="1" gridSize="10" guides="1" tooltips="1" connect="1" arrows="1" fold="1" page="1" pageScale="1" pageWidth="850" pageHeight="1100" math="0" shadow="0">
      <root>
        <mxCell id="0" />
        <mxCell id="1" parent="0" />
        <mxCell id="aM9ryv3xv72pqoxQDRHE-5" value="Authentication Systm" style="shape=umlLifeline;perimeter=lifelinePerimeter;whiteSpace=wrap;html=1;container=0;dropTarget=0;collapsible=0;recursiveResize=0;outlineConnect=0;portConstraint=eastwest;newEdgeStyle={&quot;edgeStyle&quot;:&quot;elbowEdgeStyle&quot;,&quot;elbow&quot;:&quot;vertical&quot;,&quot;curved&quot;:0,&quot;rounded&quot;:0};" parent="1" vertex="1">
          <mxGeometry x="390" y="50" width="100" height="480" as="geometry" />
        </mxCell>
        <mxCell id="2YvhY-xGPEZNMPuFePd9-11" value="" style="html=1;points=[[0,0,0,0,5],[0,1,0,0,-5],[1,0,0,0,5],[1,1,0,0,-5]];perimeter=orthogonalPerimeter;outlineConnect=0;targetShapes=umlLifeline;portConstraint=eastwest;newEdgeStyle={&quot;curved&quot;:0,&quot;rounded&quot;:0};" vertex="1" parent="aM9ryv3xv72pqoxQDRHE-5">
          <mxGeometry x="45" y="110" width="10" height="150" as="geometry" />
        </mxCell>
        <mxCell id="2YvhY-xGPEZNMPuFePd9-2" value="User Interfacre" style="shape=umlLifeline;perimeter=lifelinePerimeter;whiteSpace=wrap;html=1;container=0;dropTarget=0;collapsible=0;recursiveResize=0;outlineConnect=0;portConstraint=eastwest;newEdgeStyle={&quot;edgeStyle&quot;:&quot;elbowEdgeStyle&quot;,&quot;elbow&quot;:&quot;vertical&quot;,&quot;curved&quot;:0,&quot;rounded&quot;:0};" vertex="1" parent="1">
          <mxGeometry x="230" y="50" width="100" height="480" as="geometry" />
        </mxCell>
        <mxCell id="2YvhY-xGPEZNMPuFePd9-10" value="" style="html=1;points=[[0,0,0,0,5],[0,1,0,0,-5],[1,0,0,0,5],[1,1,0,0,-5]];perimeter=orthogonalPerimeter;outlineConnect=0;targetShapes=umlLifeline;portConstraint=eastwest;newEdgeStyle={&quot;curved&quot;:0,&quot;rounded&quot;:0};" vertex="1" parent="2YvhY-xGPEZNMPuFePd9-2">
          <mxGeometry x="45" y="60" width="10" height="390" as="geometry" />
        </mxCell>
        <mxCell id="2YvhY-xGPEZNMPuFePd9-3" value="Database" style="shape=umlLifeline;perimeter=lifelinePerimeter;whiteSpace=wrap;html=1;container=0;dropTarget=0;collapsible=0;recursiveResize=0;outlineConnect=0;portConstraint=eastwest;newEdgeStyle={&quot;edgeStyle&quot;:&quot;elbowEdgeStyle&quot;,&quot;elbow&quot;:&quot;vertical&quot;,&quot;curved&quot;:0,&quot;rounded&quot;:0};" vertex="1" parent="1">
          <mxGeometry x="590" y="50" width="100" height="470" as="geometry" />
        </mxCell>
        <mxCell id="2YvhY-xGPEZNMPuFePd9-12" value="" style="html=1;points=[[0,0,0,0,5],[0,1,0,0,-5],[1,0,0,0,5],[1,1,0,0,-5]];perimeter=orthogonalPerimeter;outlineConnect=0;targetShapes=umlLifeline;portConstraint=eastwest;newEdgeStyle={&quot;curved&quot;:0,&quot;rounded&quot;:0};" vertex="1" parent="2YvhY-xGPEZNMPuFePd9-3">
          <mxGeometry x="45" y="110" width="10" height="160" as="geometry" />
        </mxCell>
        <mxCell id="2YvhY-xGPEZNMPuFePd9-4" value="News Feed" style="shape=umlLifeline;perimeter=lifelinePerimeter;whiteSpace=wrap;html=1;container=0;dropTarget=0;collapsible=0;recursiveResize=0;outlineConnect=0;portConstraint=eastwest;newEdgeStyle={&quot;edgeStyle&quot;:&quot;elbowEdgeStyle&quot;,&quot;elbow&quot;:&quot;vertical&quot;,&quot;curved&quot;:0,&quot;rounded&quot;:0};" vertex="1" parent="1">
          <mxGeometry x="730" y="50" width="100" height="470" as="geometry" />
        </mxCell>
        <mxCell id="2YvhY-xGPEZNMPuFePd9-14" value="" style="html=1;points=[[0,0,0,0,5],[0,1,0,0,-5],[1,0,0,0,5],[1,1,0,0,-5]];perimeter=orthogonalPerimeter;outlineConnect=0;targetShapes=umlLifeline;portConstraint=eastwest;newEdgeStyle={&quot;curved&quot;:0,&quot;rounded&quot;:0};" vertex="1" parent="2YvhY-xGPEZNMPuFePd9-4">
          <mxGeometry x="45" y="110" width="10" height="280" as="geometry" />
        </mxCell>
        <mxCell id="2YvhY-xGPEZNMPuFePd9-6" value="" style="shape=umlLifeline;perimeter=lifelinePerimeter;whiteSpace=wrap;html=1;container=1;dropTarget=0;collapsible=0;recursiveResize=0;outlineConnect=0;portConstraint=eastwest;newEdgeStyle={&quot;curved&quot;:0,&quot;rounded&quot;:0};participant=umlActor;" vertex="1" parent="1">
          <mxGeometry x="130" y="50" width="20" height="470" as="geometry" />
        </mxCell>
        <mxCell id="2YvhY-xGPEZNMPuFePd9-7" value="" style="html=1;points=[[0,0,0,0,5],[0,1,0,0,-5],[1,0,0,0,5],[1,1,0,0,-5]];perimeter=orthogonalPerimeter;outlineConnect=0;targetShapes=umlLifeline;portConstraint=eastwest;newEdgeStyle={&quot;curved&quot;:0,&quot;rounded&quot;:0};" vertex="1" parent="2YvhY-xGPEZNMPuFePd9-6">
          <mxGeometry x="5" y="60" width="10" height="400" as="geometry" />
        </mxCell>
        <mxCell id="2YvhY-xGPEZNMPuFePd9-5" value=":Object" style="shape=umlLifeline;perimeter=lifelinePerimeter;whiteSpace=wrap;html=1;container=0;dropTarget=0;collapsible=0;recursiveResize=0;outlineConnect=0;portConstraint=eastwest;newEdgeStyle={&quot;edgeStyle&quot;:&quot;elbowEdgeStyle&quot;,&quot;elbow&quot;:&quot;vertical&quot;,&quot;curved&quot;:0,&quot;rounded&quot;:0};" vertex="1" parent="1">
          <mxGeometry x="910" y="50" width="100" height="300" as="geometry" />
        </mxCell>
        <mxCell id="2YvhY-xGPEZNMPuFePd9-15" value="" style="html=1;points=[[0,0,0,0,5],[0,1,0,0,-5],[1,0,0,0,5],[1,1,0,0,-5]];perimeter=orthogonalPerimeter;outlineConnect=0;targetShapes=umlLifeline;portConstraint=eastwest;newEdgeStyle={&quot;curved&quot;:0,&quot;rounded&quot;:0};" vertex="1" parent="2YvhY-xGPEZNMPuFePd9-5">
          <mxGeometry x="45" y="110" width="10" height="80" as="geometry" />
        </mxCell>
        <mxCell id="2YvhY-xGPEZNMPuFePd9-16" value="User" style="text;html=1;align=center;verticalAlign=middle;whiteSpace=wrap;rounded=0;" vertex="1" parent="1">
          <mxGeometry x="110" y="20" width="60" height="30" as="geometry" />
        </mxCell>
        <mxCell id="2YvhY-xGPEZNMPuFePd9-17" value="Access" style="html=1;verticalAlign=bottom;startArrow=oval;startFill=1;endArrow=block;startSize=8;curved=0;rounded=0;" edge="1" parent="1" source="2YvhY-xGPEZNMPuFePd9-6" target="2YvhY-xGPEZNMPuFePd9-2">
          <mxGeometry width="60" relative="1" as="geometry">
            <mxPoint x="150" y="100" as="sourcePoint" />
            <mxPoint x="210" y="100" as="targetPoint" />
            <Array as="points">
              <mxPoint x="230" y="100" />
            </Array>
          </mxGeometry>
        </mxCell>
        <mxCell id="2YvhY-xGPEZNMPuFePd9-19" value="Enter Login Parameters" style="html=1;verticalAlign=bottom;endArrow=block;curved=0;rounded=0;" edge="1" parent="1">
          <mxGeometry width="80" relative="1" as="geometry">
            <mxPoint x="140" y="180" as="sourcePoint" />
            <mxPoint x="280.2500000000001" y="180" as="targetPoint" />
          </mxGeometry>
        </mxCell>
        <mxCell id="2YvhY-xGPEZNMPuFePd9-20" value="Login Page" style="html=1;verticalAlign=bottom;endArrow=open;dashed=1;endSize=8;curved=0;rounded=0;" edge="1" parent="1" target="2YvhY-xGPEZNMPuFePd9-6">
          <mxGeometry relative="1" as="geometry">
            <mxPoint x="270" y="140" as="sourcePoint" />
            <mxPoint x="190" y="140" as="targetPoint" />
          </mxGeometry>
        </mxCell>
        <mxCell id="2YvhY-xGPEZNMPuFePd9-21" value="Send Parameters to Authenticate" style="html=1;verticalAlign=bottom;endArrow=block;curved=0;rounded=0;" edge="1" parent="1" target="2YvhY-xGPEZNMPuFePd9-11">
          <mxGeometry width="80" relative="1" as="geometry">
            <mxPoint x="285" y="199.38" as="sourcePoint" />
            <mxPoint x="425.2500000000001" y="199.38" as="targetPoint" />
          </mxGeometry>
        </mxCell>
        <mxCell id="2YvhY-xGPEZNMPuFePd9-22" value="Check Parameters" style="html=1;verticalAlign=bottom;endArrow=block;curved=0;rounded=0;" edge="1" parent="1" target="2YvhY-xGPEZNMPuFePd9-3">
          <mxGeometry width="80" relative="1" as="geometry">
            <mxPoint x="449.75" y="210" as="sourcePoint" />
            <mxPoint x="590.0000000000001" y="210" as="targetPoint" />
          </mxGeometry>
        </mxCell>
        <mxCell id="2YvhY-xGPEZNMPuFePd9-23" value="Give Parameters Result" style="html=1;verticalAlign=bottom;endArrow=open;dashed=1;endSize=8;curved=0;rounded=0;" edge="1" parent="1">
          <mxGeometry relative="1" as="geometry">
            <mxPoint x="639.4999999999998" y="250.0000000000001" as="sourcePoint" />
            <mxPoint x="439.25" y="250.0000000000001" as="targetPoint" />
          </mxGeometry>
        </mxCell>
        <mxCell id="2YvhY-xGPEZNMPuFePd9-24" value="Provide Access" style="html=1;verticalAlign=bottom;endArrow=open;dashed=1;endSize=8;curved=0;rounded=0;" edge="1" parent="1" target="2YvhY-xGPEZNMPuFePd9-2">
          <mxGeometry relative="1" as="geometry">
            <mxPoint x="431" y="270" as="sourcePoint" />
            <mxPoint x="300" y="270" as="targetPoint" />
          </mxGeometry>
        </mxCell>
        <mxCell id="2YvhY-xGPEZNMPuFePd9-25" value="Acees News Feed" style="html=1;verticalAlign=bottom;endArrow=block;curved=0;rounded=0;" edge="1" parent="1" target="2YvhY-xGPEZNMPuFePd9-14">
          <mxGeometry width="80" relative="1" as="geometry">
            <mxPoint x="285" y="330" as="sourcePoint" />
            <mxPoint x="425.2500000000001" y="330" as="targetPoint" />
          </mxGeometry>
        </mxCell>
        <mxCell id="2YvhY-xGPEZNMPuFePd9-26" value="Give News Feed" style="html=1;verticalAlign=bottom;endArrow=open;dashed=1;endSize=8;curved=0;rounded=0;" edge="1" parent="1" target="2YvhY-xGPEZNMPuFePd9-2">
          <mxGeometry relative="1" as="geometry">
            <mxPoint x="790.25" y="390.0000000000001" as="sourcePoint" />
            <mxPoint x="300" y="390" as="targetPoint" />
          </mxGeometry>
        </mxCell>
        <mxCell id="2YvhY-xGPEZNMPuFePd9-27" value="Select News Feed" style="html=1;verticalAlign=bottom;endArrow=block;curved=0;rounded=0;" edge="1" parent="1">
          <mxGeometry width="80" relative="1" as="geometry">
            <mxPoint x="150" y="289" as="sourcePoint" />
            <mxPoint x="270" y="289" as="targetPoint" />
          </mxGeometry>
        </mxCell>
        <mxCell id="2YvhY-xGPEZNMPuFePd9-28" value="Show Latest News" style="html=1;verticalAlign=bottom;endArrow=open;dashed=1;endSize=8;curved=0;rounded=0;" edge="1" parent="1">
          <mxGeometry relative="1" as="geometry">
            <mxPoint x="285.75" y="449.9999999999999" as="sourcePoint" />
            <mxPoint x="150" y="449.9999999999999" as="targetPoint" />
          </mxGeometry>
        </mxCell>
      </root>
    </mxGraphModel>
  </diagram>
</mxfile>
